# xmcd CD database file
#
# Track frame offsets:
#	150
#	39156
#	92248
#	106501
#	164101
#	181318
#	215889
#	228679
#
# Disc length: 3658 seconds
#
# Revision: 0
# Processed by: cddbd v1.5.2PL0 Copyright (c) Steve Scherf et al.
# Submitted via: CDex 1.70beta2
#
DISCID=6a0e4808
DTITLE=John Escreet - Don't Fight The Inevitable
DYEAR=2010
DGENRE=Jazz
TTITLE0=Civilization On Trial
TTITLE1=Don't Fight The Inevitable
TTITLE2=Soundscape
TTITLE3=Magic Chemical (For The Future)
TTITLE4=Charlie In The Parker
TTITLE5=Trouble And Activity
TTITLE6=Gone But Not Forgotten
TTITLE7=Avaricious World
EXTD=YEAR: 2010
EXTT0=
EXTT1=
EXTT2=
EXTT3=
EXTT4=
EXTT5=
EXTT6=
EXTT7=
PLAYORDER=
